<svg id="icons" enable-background="new 0 0 64 64" height="512" viewBox="0 0 64 64" width="512" xmlns="http://www.w3.org/2000/svg"><path d="m63 9h-62v-2c0-1.11.89-2 2-2h58c1.11 0 2 .89 2 2z" fill="#ccd1d9"/><path d="m21 49h22c1.65 0 3 1.34 3 3 0 1.65-1.35 3-3 3h-22c-1.65 0-3-1.35-3-3 0-1.66 1.35-3 3-3z" fill="#5d9cec"/><g fill="#fff"><path d="m8 38c1.66 0 3 1.35 3 3 0 1.66-1.34 3-3 3s-3-1.34-3-3c0-1.65 1.34-3 3-3z"/><path d="m5 29.01h54v4.99h-54z"/><path d="m38 38c1.66 0 3 1.35 3 3 0 1.66-1.34 3-3 3-1.65 0-3-1.34-3-3 0-1.65 1.35-3 3-3z"/><path d="m5 13h54v5h-54z"/><path d="m5 21h54v5h-54z"/></g><path d="m5 18h54v-5h-54zm54 3h-54v5h54zm4-12v50h-62v-50zm-4 25v-4.99h-54v4.99zm-13 18c0-1.66-1.35-3-3-3h-22c-1.65 0-3 1.34-3 3 0 1.65 1.35 3 3 3h22c1.65 0 3-1.35 3-3zm-5-11c0-1.65-1.34-3-3-3-1.65 0-3 1.35-3 3 0 1.66 1.35 3 3 3 1.66 0 3-1.34 3-3zm-30 0c0-1.65-1.34-3-3-3s-3 1.35-3 3c0 1.66 1.34 3 3 3s3-1.34 3-3z" fill="#e6e9ed"/><path d="m1 7.998c-.553 0-1-.447-1-1 0-1.654 1.346-3 3-3 .553 0 1 .447 1 1s-.447 1-1 1c-.552 0-1 .448-1 1 0 .553-.447 1-1 1z"/><path d="m63 7.998c-.553 0-1-.447-1-1 0-.552-.448-1-1-1-.553 0-1-.447-1-1s.447-1 1-1c1.654 0 3 1.346 3 3 0 .553-.447 1-1 1z"/><path d="m61 5.998h-58c-.553 0-1-.447-1-1s.447-1 1-1h58c.553 0 1 .447 1 1s-.447 1-1 1z"/><path d="m4.03 7.998c-.553 0-1.005-.447-1.005-1s.442-1 .994-1h.011c.552 0 1 .447 1 1s-.448 1-1 1z"/><path d="m7.029 7.998c-.553 0-1.005-.447-1.005-1s.442-1 .994-1h.011c.552 0 1 .447 1 1s-.448 1-1 1z"/><path d="m10.032 7.998c-.553 0-1.005-.447-1.005-1s.442-1 .994-1h.011c.552 0 1 .447 1 1s-.448 1-1 1z"/><path d="m1 60.002c-.553 0-1-.447-1-1v-52.004c0-.553.447-1 1-1s1 .447 1 1v52.004c0 .553-.447 1-1 1z"/><path d="m63 60.002c-.553 0-1-.447-1-1v-52.004c0-.553.447-1 1-1s1 .447 1 1v52.004c0 .553-.447 1-1 1z"/><path d="m63 9.998h-62c-.553 0-1-.447-1-1s.447-1 1-1h62c.553 0 1 .447 1 1s-.447 1-1 1z"/><path d="m63 60.002h-62c-.553 0-1-.447-1-1s.447-1 1-1h62c.553 0 1 .447 1 1s-.447 1-1 1z"/><path d="m8 45.008c-2.206 0-4-1.794-4-4s1.794-4 4-4 4 1.794 4 4-1.794 4-4 4zm0-6c-1.103 0-2 .897-2 2s.897 2 2 2 2-.897 2-2-.897-2-2-2z"/><path d="m59 35.008h-54c-.553 0-1-.447-1-1v-4.999c0-.553.447-1 1-1h54c.553 0 1 .447 1 1v4.999c0 .553-.447 1-1 1zm-53-2h52v-2.999h-52z"/><path d="m8.03 42.007c-.553 0-1.005-.447-1.005-1s.442-1 .994-1h.011c.552 0 1 .447 1 1s-.448 1-1 1z"/><path d="m55 33.006c-.256 0-.512-.098-.707-.293-.391-.391-.391-1.023 0-1.414l1-1c.391-.391 1.023-.391 1.414 0s.391 1.023 0 1.414l-1 1c-.195.195-.451.293-.707.293z"/><path d="m55 33.006c-.256 0-.512-.098-.707-.293l-1-1c-.391-.391-.391-1.023 0-1.414s1.023-.391 1.414 0l1 1c.391.391.391 1.023 0 1.414-.195.195-.451.293-.707.293z"/><path d="m59 18.998h-54c-.553 0-1-.447-1-1v-4.999c0-.553.447-1 1-1h54c.553 0 1 .447 1 1v4.999c0 .553-.447 1-1 1zm-53-2h52v-2.999h-52z"/><path d="m59 26.999h-54c-.553 0-1-.447-1-1v-4.999c0-.553.447-1 1-1h54c.553 0 1 .447 1 1v4.999c0 .553-.447 1-1 1zm-53-2h52v-2.999h-52z"/><path d="m28.992 40.007h-13.992c-.553 0-1-.447-1-1s.447-1 1-1h13.992c.553 0 1 .447 1 1s-.447 1-1 1z"/><path d="m21.985 43.007h-6.985c-.553 0-1-.447-1-1s.447-1 1-1h6.985c.553 0 1 .447 1 1s-.447 1-1 1z"/><path d="m38.004 45.008c-2.206 0-4-1.794-4-4s1.794-4 4-4 4 1.794 4 4-1.794 4-4 4zm0-6c-1.103 0-2 .897-2 2s.897 2 2 2 2-.897 2-2-.898-2-2-2z"/><path d="m58.996 40.007h-13.992c-.553 0-1-.447-1-1s.447-1 1-1h13.992c.553 0 1 .447 1 1s-.447 1-1 1z"/><path d="m51.989 43.007h-6.985c-.553 0-1-.447-1-1s.447-1 1-1h6.985c.553 0 1 .447 1 1s-.447 1-1 1z"/><path d="m43 56h-22c-.553 0-1-.447-1-1s.447-1 1-1h22c.553 0 1 .447 1 1s-.447 1-1 1z"/><path d="m43 50.001h-22c-.553 0-1-.447-1-1s.447-1 1-1h22c.553 0 1 .447 1 1s-.447 1-1 1z"/><path d="m21.003 56c-2.205 0-3.999-1.794-3.999-4 0-2.205 1.794-3.999 3.999-3.999.553 0 1 .447 1 1s-.447 1-1 1c-1.103 0-1.999.896-1.999 1.999s.896 2 1.999 2c.553 0 1 .447 1 1s-.447 1-1 1z"/><path d="m42.998 56c-.553 0-1-.447-1-1s.447-1 1-1c1.103 0 1.999-.896 1.999-1.999s-.896-2-1.999-2c-.553 0-1-.447-1-1s.447-1 1-1c2.205 0 3.999 1.794 3.999 4 0 2.205-1.794 3.999-3.999 3.999z"/><path d="m39 53h-14c-.553 0-1-.447-1-1s.447-1 1-1h14c.553 0 1 .447 1 1s-.447 1-1 1z"/></svg>