<svg viewBox="-3 0 512 512.00097" xmlns="http://www.w3.org/2000/svg"><path d="m115.050781 71.132812v-61.023437h280.113281l100.042969 100.039063v391.953124h-380.15625v-270.902343" fill="#f7f7f7"/><path d="m495.207031 110.148438h-100.042969v-100.039063zm0 0" fill="#b9b9b9"/><path d="m229.042969 90.984375v120.15625c0 11.019531-8.933594 19.953125-19.957031 19.953125h-179.125c-11.023438 0-19.957032-8.933594-19.957032-19.953125v-120.15625c0-11.019531 8.933594-19.957031 19.957032-19.957031h179.125c11.023437 0 19.957031 8.9375 19.957031 19.957031zm0 0" fill="#fade76"/><path d="m505.191406 109.714844c-.003906-.117188-.007812-.234375-.015625-.355469-.027343-.414063-.074219-.820313-.152343-1.21875-.003907-.019531-.003907-.039063-.011719-.054687-.085938-.441407-.207031-.867188-.351563-1.28125-.027344-.082032-.058594-.164063-.089844-.242188-.144531-.390625-.308593-.769531-.5-1.136719-.011718-.027343-.023437-.058593-.042968-.089843-.207032-.386719-.441406-.753907-.695313-1.109376-.058593-.082031-.121093-.164062-.183593-.242187-.269532-.351563-.550782-.691406-.859376-1-.003906-.003906-.007812-.007813-.011718-.011719l-100.039063-100.042968c-.003906-.003907-.007812-.003907-.011719-.007813-.3125-.3125-.648437-.59375-1-.859375-.082031-.066406-.164062-.125-.246093-.1875-.355469-.253906-.722657-.488281-1.105469-.695312-.035156-.015626-.066406-.03125-.097656-.046876-.363282-.1875-.738282-.351562-1.125-.496093-.082032-.03125-.164063-.0625-.25-.089844-.414063-.144531-.835938-.265625-1.273438-.351563-.023437-.003906-.050781-.007812-.074218-.011718-.390626-.074219-.792969-.121094-1.199219-.1484378-.125-.0078124-.246094-.015625-.367188-.0195312-.109375-.0039062-.214843-.015625-.324219-.015625h-280.113281c-5.527343 0-10.007812 4.480469-10.007812 10.003906v51.125h-74.300781c-16.949219 0-30.742188 13.789063-30.742188 30.742188v118.589844c0 16.953124 13.792969 30.742187 30.742188 30.742187h74.300781v260.792969c0 5.523437 4.480469 10.003906 10.003906 10.003906h380.15625c5.527344 0 10.003906-4.480469 10.003906-10.003906v-391.949219c.003907-.113281-.011719-.222656-.015625-.332031zm-100.023437-75.558594 65.882812 65.886719h-65.882812zm-280.113281 457.835938v-250.789063h3.484374c5.527344 0 10.003907-4.480469 10.003907-10.003906 0-5.523438-4.476563-10.003907-10.003907-10.003907h-97.796874c-5.917969 0-10.734376-4.816406-10.734376-10.734374v-118.589844c0-5.917969 4.816407-10.734375 10.734376-10.734375h177.617187c5.917969 0 10.730469 4.816406 10.730469 10.734375v118.589844c0 5.921874-4.8125 10.734374-10.730469 10.734374-5.527344 0-10.003906 4.480469-10.003906 10.003907 0 5.523437 4.476562 10.003906 10.003906 10.003906h.210937c.097657 0 .191407 0 .285157-.003906 16.722656-.265625 30.242187-13.953125 30.242187-30.738281v-118.589844c0-16.949219-13.789062-30.742188-30.742187-30.742188h-83.304688v-41.121094h260.109375v90.039063c0 5.523437 4.476563 10.003906 10.003906 10.003906h90.035157v371.941407zm0 0"/><path d="m235.097656 321.132812h200.082032c5.527343 0 10.003906-4.476562 10.003906-10.003906 0-5.523437-4.476563-10.003906-10.003906-10.003906h-200.082032c-5.523437 0-10.003906 4.480469-10.003906 10.003906 0 5.527344 4.480469 10.003906 10.003906 10.003906zm0 0"/><path d="m198.777344 361.257812c2.5625 0 5.121094-.980468 7.074218-2.933593 3.90625-3.90625 3.90625-10.238281 0-14.148438l-22.632812-22.632812 23.242188-23.242188c3.90625-3.90625 3.90625-10.242187 0-14.148437s-10.242188-3.90625-14.148438 0l-30.316406 30.316406c-3.90625 3.90625-3.90625 10.242188 0 14.148438l29.707031 29.707031c1.953125 1.957031 4.515625 2.933593 7.074219 2.933593zm0 0"/><path d="m416.851562 384.195312c-3.90625-3.90625-10.238281-3.90625-14.148437 0-3.90625 3.90625-3.90625 10.242188 0 14.148438l22.636719 22.632812-23.246094 23.242188c-3.90625 3.90625-3.90625 10.242188 0 14.148438 1.957031 1.953124 4.515625 2.929687 7.074219 2.929687 2.5625 0 5.121093-.976563 7.074219-2.929687l30.316406-30.316407c3.910156-3.90625 3.910156-10.242187 0-14.148437zm0 0"/><path d="m375.15625 341.144531h-140.058594c-5.523437 0-10.003906 4.476563-10.003906 10.003907 0 5.523437 4.480469 10.003906 10.003906 10.003906h140.058594c5.523438 0 10.003906-4.480469 10.003906-10.003906 0-5.527344-4.480468-10.003907-10.003906-10.003907zm0 0"/><path d="m375.15625 381.160156h-140.058594c-5.523437 0-10.003906 4.480469-10.003906 10.003906 0 5.523438 4.480469 10.003907 10.003906 10.003907h140.058594c5.523438 0 10.003906-4.480469 10.003906-10.003907 0-5.523437-4.480468-10.003906-10.003906-10.003906zm0 0"/><path d="m375.15625 421.070312h-200.082031c-5.527344 0-10.003907 4.480469-10.003907 10.003907 0 5.523437 4.476563 10.003906 10.003907 10.003906h200.082031c5.523438 0 10.003906-4.480469 10.003906-10.003906 0-5.523438-4.480468-10.003907-10.003906-10.003907zm0 0"/><path d="m89.039062 101.042969c-5.527343 0-10.003906 4.480469-10.003906 10.003906v60.183594c0 5.429687-4.417968 9.847656-9.847656 9.847656h-.316406c-5.429688 0-9.84375-4.417969-9.84375-9.847656 0-5.523438-4.480469-10.003907-10.003906-10.003907-5.527344 0-10.007813 4.480469-10.007813 10.003907 0 16.460937 13.394531 29.855469 29.855469 29.855469h.316406c16.460938 0 29.855469-13.394532 29.855469-29.855469v-60.183594c0-5.523437-4.480469-10.003906-10.003907-10.003906zm0 0"/><path d="m183.078125 170.929688c0-15.035157-11.683594-30.257813-34.015625-30.257813-9.523438 0-10.003906-8.128906-10.003906-9.757813 0-1.628906.480468-9.757812 10.003906-9.757812h13.09375c.644531 4.902344 4.839844 8.683594 9.917969 8.683594 5.523437 0 10.003906-4.480469 10.003906-10.003906v-8.683594c0-5.523438-4.480469-10.003906-10.003906-10.003906h-23.011719c-19.703125 0-30.011719 14.972656-30.011719 29.765624 0 14.789063 10.308594 29.765626 30.011719 29.765626 10.335938 0 14.007812 5.523437 14.007812 10.25 0 4.730468-3.671874 10.253906-14.007812 10.253906h-10.007812c-.125-5.414063-4.554688-9.765625-10-9.765625-5.523438 0-10.003907 4.480469-10.003907 10.003906v9.765625c0 5.523438 4.480469 10.003906 10.003907 10.003906h20.007812c22.332031 0 34.015625-15.222656 34.015625-30.261718zm0 0"/><path d="m161.148438 237.84375c.460937.457031.96875.878906 1.519531 1.238281.539062.359375 1.121093.671875 1.730469.921875.601562.25 1.230468.4375 1.871093.570313.640625.128906 1.300781.199219 1.953125.199219.648438 0 1.308594-.070313 1.957032-.199219.632812-.132813 1.261718-.320313 1.871093-.570313.601563-.25 1.183594-.5625 1.722657-.921875.550781-.359375 1.058593-.78125 1.519531-1.238281.460937-.460938.882812-.980469 1.25-1.523438.363281-.550781.671875-1.128906.921875-1.730468.25-.597656.441406-1.230469.570312-1.871094.128906-.648438.191406-1.300781.191406-1.960938 0-.648437-.0625-1.300781-.191406-1.949218-.128906-.640625-.320312-1.269532-.570312-1.871094s-.558594-1.179688-.921875-1.730469c-.367188-.539062-.789063-1.058593-1.25-1.519531-.460938-.460938-.96875-.882812-1.519531-1.242188-.539063-.359374-1.121094-.667968-1.722657-.917968-.609375-.25-1.238281-.441406-1.871093-.570313-1.289063-.261719-2.621094-.261719-3.910157 0-.640625.128907-1.269531.320313-1.871093.570313-.609376.25-1.191407.558594-1.730469.917968-.550781.359376-1.058594.78125-1.519531 1.242188-.460938.460938-.882813.980469-1.242188 1.519531-.359375.550781-.667969 1.132813-.917969 1.730469-.25.601562-.441406 1.230469-.570312 1.871094-.132813.648437-.203125 1.300781-.203125 1.949218 0 .660157.070312 1.3125.203125 1.960938.128906.640625.320312 1.273438.570312 1.871094.25.601562.558594 1.183594.917969 1.730468.359375.542969.78125 1.0625 1.242188 1.523438zm0 0"/></svg>